<svg width="25" height="25" viewBox="0 0 25 25" fill="none" xmlns="http://www.w3.org/2000/svg">
<g clip-path="url(#clip0_114_96)">
<path d="M10.0694 11.684C11.4497 11.0243 12.1701 10.026 12.1701 8.47222C12.1701 5.40799 9.88715 4.66146 7.2526 4.66146H0V20.0434H7.4566C10.2517 20.0434 12.8776 18.7023 12.8776 15.5773C12.8776 13.6458 11.9618 12.2179 10.0694 11.684ZM3.38108 7.28733H6.55382C7.77344 7.28733 8.87153 7.63021 8.87153 9.04514C8.87153 10.3516 8.01649 10.8767 6.8099 10.8767H3.38108V7.28733ZM6.99653 17.4306H3.38108V13.1944H7.06597C8.55469 13.1944 9.49653 13.8151 9.49653 15.3906C9.49653 16.9444 8.3724 17.4306 6.99653 17.4306ZM22.5564 6.98351H16.3194V5.46875H22.5564V6.98351ZM25 14.6354C25 11.3411 23.0729 8.59375 19.579 8.59375C16.1849 8.59375 13.8802 11.1458 13.8802 14.4878C13.8802 17.9557 16.0634 20.3342 19.579 20.3342C22.2396 20.3342 23.9627 19.1363 24.7917 16.5885H22.092C21.8012 17.5391 20.6033 18.0425 19.6745 18.0425C17.8819 18.0425 16.9401 16.9922 16.9401 15.2083H24.974C24.987 15.026 25 14.8307 25 14.6354ZM16.9444 13.2813C17.0443 11.8186 18.0165 10.9028 19.4835 10.9028C21.02 10.9028 21.7925 11.8056 21.9227 13.2813H16.9444Z" fill="black"/>
</g>
<defs>
<clipPath id="clip0_114_96">
<rect width="25" height="25" fill="white"/>
</clipPath>
</defs>
</svg>
