<svg width="24" height="25" viewBox="0 0 24 25" fill="none" xmlns="http://www.w3.org/2000/svg">
<g clip-path="url(#clip0_13_18)">
<path d="M16 22.6921V18.8221C16.0375 18.3452 15.9731 17.8659 15.811 17.4159C15.6489 16.9659 15.3929 16.5555 15.06 16.2121C18.2 15.8621 21.5 14.6721 21.5 9.21208C21.4997 7.8159 20.9627 6.47327 20 5.46208C20.4559 4.24058 20.4236 2.89043 19.91 1.69208C19.91 1.69208 18.73 1.34208 16 3.17208C13.708 2.5509 11.292 2.5509 9 3.17208C6.27 1.34208 5.09 1.69208 5.09 1.69208C4.57638 2.89043 4.54414 4.24058 5 5.46208C4.03013 6.48078 3.49252 7.83554 3.5 9.24208C3.5 14.6621 6.8 15.8521 9.94 16.2421C9.611 16.582 9.35726 16.9875 9.19531 17.432C9.03335 17.8765 8.96681 18.3501 9 18.8221V22.6921M9 19.6921C4 21.1921 4 17.1921 2 16.6921L9 19.6921Z" stroke="black" stroke-width="2" stroke-linecap="round" stroke-linejoin="round"/>
</g>
<defs>
<clipPath id="clip0_13_18">
<rect width="24" height="24" fill="white" transform="translate(0 0.692017)"/>
</clipPath>
</defs>
</svg>
