<svg width="24" height="25" viewBox="0 0 24 25" fill="none" xmlns="http://www.w3.org/2000/svg">
<path d="M16 8.69202C17.5913 8.69202 19.1174 9.32416 20.2426 10.4494C21.3679 11.5746 22 13.1007 22 14.692V21.692H18V14.692C18 14.1616 17.7893 13.6529 17.4142 13.2778C17.0391 12.9027 16.5304 12.692 16 12.692C15.4696 12.692 14.9609 12.9027 14.5858 13.2778C14.2107 13.6529 14 14.1616 14 14.692V21.692H10V14.692C10 13.1007 10.6321 11.5746 11.7574 10.4494C12.8826 9.32416 14.4087 8.69202 16 8.69202V8.69202Z" stroke="black" stroke-width="2" stroke-linecap="round" stroke-linejoin="round"/>
<path d="M6 9.69202H2V21.692H6V9.69202Z" stroke="black" stroke-width="2" stroke-linecap="round" stroke-linejoin="round"/>
<path d="M4 6.69202C5.10457 6.69202 6 5.79659 6 4.69202C6 3.58745 5.10457 2.69202 4 2.69202C2.89543 2.69202 2 3.58745 2 4.69202C2 5.79659 2.89543 6.69202 4 6.69202Z" stroke="black" stroke-width="2" stroke-linecap="round" stroke-linejoin="round"/>
</svg>
