<svg width="41" height="40" viewBox="0 0 41 40" fill="none" xmlns="http://www.w3.org/2000/svg">
<path d="M20.4488 10.6667C23.3005 10.6667 25.6197 8.27467 25.6197 5.33333C25.6197 2.392 23.3005 0 20.4488 0C17.597 0 15.2779 2.392 15.2779 5.33333C15.2779 8.27467 17.597 10.6667 20.4488 10.6667Z" fill="#0288D1"/>
<path d="M34.6689 10.6667C37.5206 10.6667 39.8397 8.27467 39.8397 5.33333C39.8397 2.392 37.5206 0 34.6689 0C31.817 0 29.4979 2.392 29.4979 5.33333C29.4979 8.27467 31.817 10.6667 34.6689 10.6667Z" fill="#0288D1" fill-opacity="0.2"/>
<path d="M34.6689 14.6666C31.817 14.6666 29.4979 17.0586 29.4979 20C29.4979 22.9413 31.817 25.3333 34.6689 25.3333C37.5206 25.3333 39.8397 22.9413 39.8397 20C39.8397 17.0586 37.5206 14.6666 34.6689 14.6666Z" fill="#0288D1"/>
<path d="M6.22874 29.3334C3.37697 29.3334 1.05782 31.7254 1.05782 34.6667C1.05782 37.608 3.37697 40 6.22874 40C9.08051 40 11.3997 37.608 11.3997 34.6667C11.3997 31.7254 9.08051 29.3334 6.22874 29.3334Z" fill="#0288D1" fill-opacity="0.2"/>
<path d="M34.6689 29.3333C32.2657 29.3333 30.2606 31.04 29.6815 33.3333H25.4361C25.2046 32.4167 24.7401 31.5803 24.0907 30.9104C23.4413 30.2405 22.6303 29.7615 21.7415 29.5227V25.144C23.965 24.548 25.6197 22.4773 25.6197 20C25.6197 17.0587 23.3005 14.6667 20.4488 14.6667C18.0457 14.6667 16.0406 16.3733 15.4614 18.6667H11.2161C10.9845 17.75 10.5201 16.9136 9.87064 16.2437C9.22119 15.5739 8.41026 15.0948 7.52148 14.856V10.4773C9.74497 9.88133 11.3997 7.81067 11.3997 5.33333C11.3997 2.392 9.08051 0 6.22874 0C3.37697 0 1.05782 2.392 1.05782 5.33333C1.05782 7.81067 2.71251 9.88 4.93601 10.4773V14.856C2.71251 15.452 1.05782 17.5227 1.05782 20C1.05782 22.9413 3.37697 25.3333 6.22874 25.3333C8.63193 25.3333 10.637 23.6267 11.2161 21.3333H15.4614C15.693 22.25 16.1574 23.0864 16.807 23.7563C17.4564 24.4261 18.2672 24.9052 19.1561 25.144V29.5227C16.9325 30.1187 15.2779 32.1893 15.2779 34.6667C15.2779 37.608 17.597 40 20.4488 40C22.852 40 24.857 38.2933 25.4361 36H29.6815C30.2593 38.2933 32.267 40 34.6689 40C37.5206 40 39.8397 37.608 39.8397 34.6667C39.8397 31.7253 37.5206 29.3333 34.6689 29.3333Z" fill="#0288D1"/>
</svg>
